<svg width="112" height="69" viewBox="0 0 112 69" fill="none" xmlns="http://www.w3.org/2000/svg">
<path d="M101.17 46.8259C103.087 49.2353 101.677 52.8168 98.6317 53.2724L81.8939 55.7769C78.8486 56.2326 76.452 53.2207 77.58 50.3556L83.78 34.6079C84.908 31.7428 88.7147 31.1732 90.6319 33.5827L101.17 46.8259Z" fill="#FCF0D6"/>
<path d="M80.3425 27.81C82.3978 28.6193 83.4083 30.9412 82.5993 32.9966L75.1198 51.9975C74.3107 54.0531 71.988 55.0636 69.9323 54.2544L63.4919 51.7192C63.5874 51.5661 63.6715 51.4029 63.74 51.229L73.9509 25.2934L80.3425 27.81ZM7.75852 3.53563C8.56778 1.48041 10.8897 0.469977 12.945 1.27879L64.7917 21.688L54.5808 47.6235C54.5124 47.7973 54.462 47.9739 54.4275 48.1509L2.53586 27.7241C0.480257 26.9149 -0.530153 24.5922 0.279028 22.5366L7.75852 3.53563Z" fill="#FCF0D6"/>
<rect x="13.2435" y="31.2521" width="11.2422" height="28.4628" transform="rotate(-158.51 13.2435 31.2521)" fill="#B40023"/>
<rect x="28.1011" y="37.1069" width="12.0137" height="28.4863" transform="rotate(-158.51 28.1011 37.1069)" fill="#6B9EBD"/>
</svg>
